<svg width="28" height="28" viewBox="0 0 28 28" fill="none" xmlns="http://www.w3.org/2000/svg">
<path d="M15.1675 7.00001C15.1675 5.76233 14.6758 4.57535 13.8006 3.70018C12.9255 2.82501 11.7385 2.33334 10.5008 2.33334C9.26313 2.33334 8.07614 2.82501 7.20097 3.70018C6.3258 4.57535 5.83414 5.76233 5.83414 7.00001" stroke="#B5B8B5" stroke-width="1.75" stroke-linecap="round" stroke-linejoin="round"/>
<path d="M12.0385 10.4079V7.42476C12.0272 7.01032 11.8547 6.61663 11.5576 6.32747C11.2605 6.03831 10.8623 5.87651 10.4477 5.87651C10.0331 5.87651 9.63489 6.03831 9.33779 6.32747C9.0407 6.61663 8.86818 7.01032 8.85695 7.42476V16.6321L7.13845 14.9334C6.95944 14.7576 6.74575 14.6211 6.51101 14.5325C6.27626 14.4439 6.02563 14.4053 5.77511 14.419C5.52459 14.4327 5.27968 14.4985 5.05602 14.6122C4.83235 14.7259 4.63485 14.885 4.47612 15.0793C4.22868 15.3837 4.09071 15.7624 4.08437 16.1547C4.07802 16.547 4.20366 16.93 4.44112 17.2423L7.62845 21.4364C8.35178 22.3884 8.71345 22.8644 9.14745 23.2343C9.81245 23.7989 10.6058 24.1909 11.4621 24.3776C12.0221 24.4989 12.6253 24.4989 13.8305 24.4989C16.1288 24.4989 17.278 24.4989 18.1926 24.1524C18.8815 23.8932 19.5082 23.4919 20.032 22.9748C20.5557 22.4576 20.9649 21.8361 21.233 21.1506C21.5841 20.2476 21.5841 19.1124 21.5841 16.8444V14.2626C21.5805 13.7649 21.4002 13.2846 21.0754 12.9075C20.7506 12.5304 20.3024 12.2808 19.8108 12.2034L19.4491 12.1451C19.3215 12.1229 19.1906 12.1288 19.0654 12.1622C18.9403 12.1957 18.8239 12.256 18.7244 12.3389C18.6248 12.4218 18.5445 12.5253 18.4889 12.6423C18.4334 12.7594 18.4039 12.8871 18.4026 13.0166M12.0385 10.4079L12.651 10.1058C12.9461 9.95993 13.2751 9.86659 13.596 9.94243C14.0559 10.0483 14.4666 10.3064 14.7615 10.6748C15.0565 11.0433 15.2184 11.5005 15.2211 11.9724M12.0385 10.4079V13.0166M18.4026 13.0166C18.4026 11.8639 17.453 10.9283 16.2816 10.9283C15.696 10.9283 15.2211 11.3961 15.2211 11.9724M18.4026 13.0166V14.0608M15.2211 11.9724V13.0166" stroke="#B5B8B5" stroke-width="1.75" stroke-linecap="round" stroke-linejoin="round"/>
</svg>
